<?xml version="1.0" encoding="UTF-8" standalone="no"?>
<!DOCTYPE svg PUBLIC "-//W3C//DTD SVG 1.1//EN" "http://www.w3.org/Graphics/SVG/1.1/DTD/svg11.dtd">
<svg version="1.1" xmlns="http://www.w3.org/2000/svg" xmlns:xlink="http://www.w3.org/1999/xlink" preserveAspectRatio="xMidYMid meet" viewBox="0 0 640 640" width="640" height="640"><defs><path d="" id="j3RLF3V03"></path><path d="M330 80L340 120L330 160L300 190L270 160L260 120L270 80L300 50L330 80Z" id="aeQBcSwvO"></path><linearGradient id="gradientd2mZdHMA3U" gradientUnits="userSpaceOnUse" x1="300" y1="50" x2="300" y2="190"><stop style="stop-color: #f10e0e;stop-opacity: 1" offset="0%"></stop><stop style="stop-color: #ca0c0c;stop-opacity: 1" offset="16.277481673599844%"></stop><stop style="stop-color: #010000;stop-opacity: 1" offset="100%"></stop></linearGradient><linearGradient id="gradienti1CtayfCmY" gradientUnits="userSpaceOnUse" x1="300" y1="50" x2="300" y2="190"><stop style="stop-color: #f10e0e;stop-opacity: 1" offset="0%"></stop><stop style="stop-color: #f6cc0a;stop-opacity: 1" offset="100%"></stop></linearGradient><path d="M370 170L360 210L330 250L280 280L270 330L300 360L360 350L410 300L410 380L350 440L250 440L190 380L190 280L250 220L300 210L340 170L350 130L370 170Z" id="m18VKhtV9N"></path><linearGradient id="gradientczawq7V4a" gradientUnits="userSpaceOnUse" x1="300" y1="130" x2="300" y2="440"><stop style="stop-color: #f1910e;stop-opacity: 1" offset="0%"></stop><stop style="stop-color: #ea00b3;stop-opacity: 1" offset="100%"></stop></linearGradient></defs><g><g><g><g><use xlink:href="#j3RLF3V03" opacity="1" fill-opacity="0" stroke="#000000" stroke-width="1" stroke-opacity="1"></use></g></g><g><use xlink:href="#aeQBcSwvO" opacity="1" fill="url(#gradientd2mZdHMA3U)"></use><use xlink:href="#aeQBcSwvO" opacity="1" fill="url(#gradienti1CtayfCmY)"></use></g><g><use xlink:href="#m18VKhtV9N" opacity="1" fill="url(#gradientczawq7V4a)"></use></g></g></g></svg>