<?xml version="1.0" encoding="UTF-8" standalone="no"?>
<!DOCTYPE svg PUBLIC "-//W3C//DTD SVG 1.1//EN" "http://www.w3.org/Graphics/SVG/1.1/DTD/svg11.dtd">
<svg version="1.1" xmlns="http://www.w3.org/2000/svg" xmlns:xlink="http://www.w3.org/1999/xlink" preserveAspectRatio="xMidYMid meet" viewBox="0 0 640 640" width="640" height="640"><defs><path d="" id="j3RLF3V03"></path><path d="M336.85 107.6C338.88 115.74 338.88 124.26 336.85 132.4C335.47 137.92 336.15 135.21 335.2 139.01C331.76 152.75 324.66 165.29 314.65 175.3C312.69 177.26 307.79 182.16 299.95 190C291.79 181.84 286.69 176.74 284.65 174.7C275.03 165.08 268.21 153.03 264.91 139.83C263.91 135.86 264.68 138.91 263.36 133.64C261.12 124.68 261.12 115.32 263.36 106.36C264.68 101.09 262.68 109.09 263.36 106.36C267.67 89.11 276.59 73.36 289.16 60.78C290.6 59.35 294.2 55.75 299.95 50C305.75 55.8 309.37 59.42 310.82 60.87C323.34 73.39 332.22 89.07 336.51 106.25C337.2 109 335.47 102.08 336.85 107.6Z" id="b3EpP5gzRQ"></path><linearGradient id="gradienta1pXLheYuI" gradientUnits="userSpaceOnUse" x1="300.03" y1="50" x2="300.03" y2="190"><stop style="stop-color: #f10e0e;stop-opacity: 1" offset="0%"></stop><stop style="stop-color: #ca0c0c;stop-opacity: 1" offset="16.277481673599844%"></stop><stop style="stop-color: #010000;stop-opacity: 1" offset="100%"></stop></linearGradient><linearGradient id="gradientk1p2C1xAdx" gradientUnits="userSpaceOnUse" x1="300.03" y1="50" x2="300.03" y2="190"><stop style="stop-color: #f10e0e;stop-opacity: 1" offset="0%"></stop><stop style="stop-color: #f6cc0a;stop-opacity: 1" offset="100%"></stop></linearGradient><path d="M364.23 193.09C361.44 204.25 356.44 214.74 349.54 223.94C345.63 229.15 346.88 227.49 343.6 231.86C334.62 243.84 323.4 253.96 310.56 261.67C304.45 265.33 306.75 263.95 300.94 267.44C287.6 275.44 278.26 288.69 275.21 303.95C274.17 309.16 275.43 302.85 274.29 308.56C271.61 321.95 275.8 335.8 285.46 345.46C288.37 348.37 282.37 342.37 285.46 345.46C294.58 354.58 307.55 358.74 320.28 356.62C328.23 355.3 320.5 356.58 325.62 355.73C347.98 352 368.62 341.38 384.64 325.36C388.02 321.98 396.48 313.52 410 300C410 316.53 410 326.86 410 330.99C410 362.37 397.53 392.47 375.34 414.66C370.28 419.72 382.28 407.72 375.34 414.66C359.12 430.88 337.11 440 314.16 440C301.33 440 299.6 440 287 440C263.31 440 240.59 430.59 223.84 413.84C217.07 407.07 226.65 416.65 220.82 410.82C201.09 391.09 190 364.32 190 336.42C190 325.13 190 345.13 190 336.42C190 300.29 204.35 265.65 229.89 240.11C233.91 236.09 221.91 248.09 229.89 240.11C243 227 259.7 218.06 277.88 214.42C282.31 213.54 272.31 215.54 277.88 214.42C292.3 211.54 305.55 204.45 315.95 194.05C320.76 189.24 319.71 190.29 324.64 185.36C334.69 175.31 341.82 162.72 345.27 148.93C345.9 146.41 347.48 140.1 350 130C354.99 139.98 358.11 146.22 359.36 148.71C366.22 162.45 367.95 178.19 364.23 193.09C363.38 196.47 365.38 188.47 364.23 193.09Z" id="b25HmD8sC"></path><linearGradient id="gradientb9QnKs7MVy" gradientUnits="userSpaceOnUse" x1="300" y1="130" x2="300" y2="440"><stop style="stop-color: #f1910e;stop-opacity: 1" offset="0%"></stop><stop style="stop-color: #ea00b3;stop-opacity: 1" offset="100%"></stop></linearGradient></defs><g><g><g><g><use xlink:href="#j3RLF3V03" opacity="1" fill-opacity="0" stroke="#000000" stroke-width="1" stroke-opacity="1"></use></g></g><g><use xlink:href="#b3EpP5gzRQ" opacity="1" fill="url(#gradienta1pXLheYuI)"></use><use xlink:href="#b3EpP5gzRQ" opacity="1" fill="url(#gradientk1p2C1xAdx)"></use></g><g><use xlink:href="#b25HmD8sC" opacity="1" fill="url(#gradientb9QnKs7MVy)"></use></g></g></g></svg>