<svg id="_x33_0" enable-background="new 0 0 64 64" height="150" viewBox="0 0 64 64" width="512" xmlns="http://www.w3.org/2000/svg"><path d="m61.825 17.796-9.387-15.36c-.541-.886-1.521-1.436-2.56-1.436h-35.756c-1.038 0-2.019.55-2.56 1.436l-9.387 15.36c-.769 1.259-1.175 2.702-1.175 4.176 0 1.517.428 2.995 1.237 4.277l19.714 31.213c2.19 3.468 5.946 5.538 10.049 5.538 4.102 0 7.859-2.07 10.05-5.539l19.712-31.212c.81-1.282 1.238-2.761 1.238-4.277 0-1.474-.406-2.917-1.175-4.176zm-8.69-10.384-15.135 14.271v-5.269l12.809-12.809zm-11.135 35.588c0 2.706-1.085 5.161-2.838 6.964l-1.771-5.212 4.503-3.127c.063.451.106.907.106 1.375zm-8 0c0 1.103-.897 2-2 2s-2-.897-2-2 .897-2 2-2 2 .897 2 2zm-5.969.304-3.838-2.665h4.594c-.488.664-.787 1.475-.787 2.361 0 .104.023.202.031.304zm2.867 3.522-3.772 2.62 1.48-4.354c.517.835 1.328 1.456 2.292 1.734zm4.496-1.734 1.48 4.355-3.772-2.62c.963-.279 1.775-.9 2.292-1.735zm-.181-4.452h4.594l-3.838 2.665c.008-.103.031-.201.031-.305 0-.886-.299-1.697-.787-2.36zm-3.213-1.64c-.5 0-.974.103-1.415.271l1.415-4.163 1.415 4.163c-.441-.168-.915-.271-1.415-.271zm-1.435-5.885-1.878 5.524h-5.672c1.423-2.919 4.22-5.042 7.55-5.524zm-8.459 8.51 4.503 3.127-1.771 5.212c-1.753-1.803-2.838-4.258-2.838-6.964 0-.468.043-.924.106-1.375zm9.894 6.871 4.752 3.3c-1.415.768-3.033 1.204-4.752 1.204s-3.338-.436-4.752-1.204zm3.313-9.856-1.878-5.524c3.33.482 6.127 2.605 7.55 5.524zm-9.313-7.64v-2h12l.001 2zm5-4v-2h2v2zm-3-4v-6h8v6zm8.586-8h-9.172l-12-12h33.172zm-23.395-11.395 12.809 12.809v5.269l-15.135-14.271zm46.88 21.576-19.713 31.212c-1.821 2.884-4.946 4.607-8.358 4.607s-6.537-1.722-8.357-4.606l-19.714-31.213c-.608-.962-.929-2.072-.929-3.209 0-1.105.305-2.188.882-3.133l5.917-9.683 16.804 15.844h2.397v2h-3c-1.103 0-2 .897-2 2v2c0 .928.639 1.704 1.499 1.929-3.304 2.139-5.499 5.85-5.499 10.071 0 6.617 5.383 12 12 12s12-5.383 12-12c0-4.221-2.195-7.932-5.499-10.071.86-.225 1.499-1.001 1.499-1.929v-2c0-1.103-.897-2-2-2h-3v-2h2.397l16.804-15.844 5.917 9.683c.577.944.882 2.027.882 3.133 0 1.137-.321 2.247-.929 3.209z"/></svg>