<svg id="Filled" height="512" viewBox="0 0 512 512" width="512" xmlns="http://www.w3.org/2000/svg"><path d="m264 232v240a16 16 0 0 1 -16 16h-128a16 16 0 0 1 -16-16v-240c0-56 56-80 56-80v-80h-8v-48h64v48h-8v80s56 24 56 80z" fill="#4f5659"/><path d="m160 120h48v32h-48z" fill="#6a7073"/><path d="m104 280h160v144h-160z" fill="#6a7073"/><path d="m320 368-32 104-24-24-32 8 40-136 48 16z" fill="#e4bc43"/><path d="m320 368 32 104 24-24 32 8-40-136-48 16z" fill="#e4bc43"/><circle cx="320" cy="280" fill="#f3db70" r="88"/><circle cx="320" cy="280" fill="#e4bc43" r="56"/><path d="m216 24v48h-8v48h-48v-48h-8v-48z" fill="#931237"/><path d="m120 496h128a24.028 24.028 0 0 0 24-24v-4.686l10.343 10.343a8 8 0 0 0 13.3-3.3l24.357-79.157 24.354 79.149a8 8 0 0 0 13.3 3.3l20.8-20.8 27.606 6.9a8 8 0 0 0 9.615-10.018l-30.414-103.395a95.953 95.953 0 0 0 -119.1-149.775c-11.987-30.781-39.041-47.689-50.161-53.551v-67.01a8 8 0 0 0 8-8v-48a8 8 0 0 0 -8-8h-64a8 8 0 0 0 -8 8v48a8 8 0 0 0 8 8v67.023a122.7 122.7 0 0 0 -25.444 18.115c-19.99 18.562-30.556 41.682-30.556 66.862v240a24.028 24.028 0 0 0 24 24zm128-16h-128a8.009 8.009 0 0 1 -8-8v-40h118.72l-6.4 21.743a8 8 0 0 0 9.615 10.018l22.065-5.515v13.754a8.009 8.009 0 0 1 -8 8zm-23.664-192a95.8 95.8 0 0 0 30.4 62.336l-19.31 65.664h-123.426v-128zm59.926 168.947-14.605-14.6a8 8 0 0 0 -7.6-2.1l-18.441 4.611 24.7-83.98a95.373 95.373 0 0 0 41.033 14.536zm112.12-12.1-18.442-4.611a7.993 7.993 0 0 0 -7.6 2.1l-14.605 14.6-25.089-81.541a95.373 95.373 0 0 0 41.033-14.536zm3.618-164.847a80 80 0 1 1 -80-80 80.091 80.091 0 0 1 80 80zm-240-248h48v32a8 8 0 0 0 -8 8v40h-32v-40a8 8 0 0 0 -8-8zm40 112h-32v-16h32zm-62.924 33.205a105.742 105.742 0 0 1 24.701-17.205h44.439c6.828 3.358 37.06 19.78 46.746 51.356a95.758 95.758 0 0 0 -28.626 60.644h-112.336v-40c0-20.749 8.437-39.185 25.076-54.795z"/><path d="m320 344a64 64 0 1 0 -64-64 64.072 64.072 0 0 0 64 64zm0-112a48 48 0 1 1 -48 48 48.053 48.053 0 0 1 48-48z"/><path d="m304 312h32a8 8 0 0 0 0-16h-8v-40a8 8 0 0 0 -8-8h-8a8 8 0 0 0 0 16v32h-8a8 8 0 0 0 0 16z"/><path d="m136 256a8 8 0 0 0 8-8v-8c0-22.132 13.732-35.535 21.918-41.555a8 8 0 0 0 -9.48-12.89c-10.62 7.811-28.438 25.27-28.438 54.445v8a8 8 0 0 0 8 8z"/></svg>