<svg id="Solid" height="512" viewBox="0 0 512 512" width="512" xmlns="http://www.w3.org/2000/svg"><path d="m320 200a80 80 0 1 0 80 80 80.091 80.091 0 0 0 -80-80zm0 144a64 64 0 1 1 64-64 64.072 64.072 0 0 1 -64 64z"/><path d="m112 472a8.009 8.009 0 0 0 8 8h128a8.009 8.009 0 0 0 8-8v-13.754l-22.06 5.515a8 8 0 0 1 -9.615-10.018l6.395-21.743h-118.72z"/><path d="m112 416h123.426l19.313-65.664a95.8 95.8 0 0 1 -30.403-62.336h-112.336z"/><path d="m168 128h32v16h-32z"/><path d="m112 232v40h112.336a95.758 95.758 0 0 1 28.626-60.644c-9.686-31.576-39.918-48-46.746-51.356h-44.439a105.742 105.742 0 0 0 -24.7 17.205c-16.64 15.61-25.077 34.046-25.077 54.795zm44.438-46.445a8 8 0 0 1 9.48 12.89c-8.186 6.02-21.918 19.423-21.918 41.555v8a8 8 0 0 1 -16 0v-8c0-29.175 17.818-46.634 28.438-54.445z"/><path d="m268.318 360.87-24.7 83.98 18.441-4.611a8 8 0 0 1 7.6 2.1l14.605 14.6 25.089-81.541a95.373 95.373 0 0 1 -41.035-14.528z"/><path d="m371.682 360.87a95.373 95.373 0 0 1 -41.033 14.536l25.089 81.541 14.605-14.6a7.993 7.993 0 0 1 7.6-2.1l18.442 4.611z"/><path d="m320 232a48 48 0 1 0 48 48 48.053 48.053 0 0 0 -48-48zm16 80h-32a8 8 0 0 1 0-16h8v-32a8 8 0 0 1 0-16h8a8 8 0 0 1 8 8v40h8a8 8 0 0 1 0 16z"/><path d="m200 72a8 8 0 0 1 8-8v-32h-48v32a8 8 0 0 1 8 8v40h32z"/></svg>