<svg id="_x33_0" enable-background="new 0 0 64 64" height="150" viewBox="0 0 64 64" width="512" xmlns="http://www.w3.org/2000/svg"><g><path d="m22 43c0 2.706 1.085 5.161 2.838 6.964l1.771-5.212-4.503-3.127c-.063.451-.106.907-.106 1.375z"/><path d="m23.015 38.64h5.672l1.878-5.524c-3.33.481-6.127 2.604-7.55 5.524z"/><path d="m36.752 51.797-4.752-3.301-4.752 3.3c1.414.768 3.033 1.204 4.752 1.204s3.337-.436 4.752-1.203z"/><path d="m28.606 45.092-1.48 4.354 3.772-2.62c-.964-.278-1.775-.899-2.292-1.734z"/><path d="m28 43c0-.886.299-1.697.787-2.36h-4.594l3.838 2.665c-.008-.103-.031-.201-.031-.305z"/><path d="m38 21.683 15.135-14.271-2.326-3.807-12.809 12.809z"/><path d="m33.415 39.271-1.415-4.163-1.415 4.163c.441-.168.915-.271 1.415-.271s.974.103 1.415.271z"/><circle cx="32" cy="43" r="2"/><path d="m36.586 15 12-12h-33.172l12 12z"/><path d="m28 17h8v6h-8z"/><path d="m26 16.414-12.809-12.809-2.326 3.807 15.135 14.271z"/><path d="m31 25h2v2h-2z"/><path d="m60.118 18.839-5.917-9.683-16.804 15.844h-2.397v2h3c1.103 0 2 .897 2 2v2c0 .928-.639 1.704-1.499 1.929 3.304 2.139 5.499 5.85 5.499 10.071 0 6.617-5.383 12-12 12s-12-5.383-12-12c0-4.221 2.195-7.932 5.499-10.071-.86-.225-1.499-1.001-1.499-1.929v-2c0-1.103.897-2 2-2h3v-2h-2.397l-16.804-15.844-5.917 9.683c-.577.944-.882 2.027-.882 3.133 0 1.138.321 2.247.929 3.209l19.714 31.213c1.82 2.884 4.945 4.606 8.357 4.606s6.537-1.723 8.358-4.607l19.713-31.212c.608-.962.929-2.072.929-3.209 0-1.106-.305-2.189-.882-3.133z"/><path d="m35.213 40.64c.488.663.787 1.474.787 2.36 0 .104-.023.202-.031.304l3.838-2.665h-4.594z"/><path d="m42 43c0-.468-.043-.924-.106-1.375l-4.503 3.127 1.771 5.212c1.753-1.803 2.838-4.258 2.838-6.964z"/><path d="m26 29h12.001v2h-12.001z"/><path d="m35.394 45.092c-.516.835-1.328 1.456-2.292 1.734l3.772 2.62z"/><path d="m33.435 33.115 1.878 5.524h5.672c-1.423-2.919-4.22-5.042-7.55-5.524z"/></g></svg>